<svg width="148" height="34" viewBox="0 0 148 34" fill="none" xmlns="http://www.w3.org/2000/svg">
<path d="M137.744 12.0909L140.26 17.1222L142.865 12.0909H147.767L143.501 19.7273L147.926 27.3637H143.064L140.26 22.2926L137.525 27.3637H132.593L137.028 19.7273L132.812 12.0909H137.744Z" fill="#F6FFFC"/>
<path d="M123.948 27.652C122.344 27.652 120.965 27.3239 119.811 26.6677C118.665 26.0048 117.78 25.0834 117.157 23.9035C116.54 22.7169 116.232 21.3414 116.232 19.777C116.232 18.206 116.54 16.8305 117.157 15.6506C117.78 14.4641 118.665 13.5427 119.811 12.8864C120.965 12.2235 122.344 11.8921 123.948 11.8921C125.552 11.8921 126.927 12.2235 128.074 12.8864C129.228 13.5427 130.113 14.4641 130.729 15.6506C131.352 16.8305 131.664 18.206 131.664 19.777C131.664 21.3414 131.352 22.7169 130.729 23.9035C130.113 25.0834 129.228 26.0048 128.074 26.6677C126.927 27.3239 125.552 27.652 123.948 27.652ZM123.978 23.983C124.561 23.983 125.055 23.804 125.459 23.4461C125.864 23.0881 126.172 22.591 126.384 21.9546C126.603 21.3182 126.712 20.5824 126.712 19.7472C126.712 18.8987 126.603 18.1563 126.384 17.5199C126.172 16.8836 125.864 16.3864 125.459 16.0285C125.055 15.6705 124.561 15.4915 123.978 15.4915C123.374 15.4915 122.864 15.6705 122.446 16.0285C122.035 16.3864 121.721 16.8836 121.502 17.5199C121.29 18.1563 121.184 18.8987 121.184 19.7472C121.184 20.5824 121.29 21.3182 121.502 21.9546C121.721 22.591 122.035 23.0881 122.446 23.4461C122.864 23.804 123.374 23.983 123.978 23.983Z" fill="#F6FFFC"/>
<path d="M98.9084 27.3636V7H103.771V14.706H103.87C104.069 14.242 104.351 13.7945 104.715 13.3636C105.086 12.9328 105.557 12.5814 106.127 12.3097C106.704 12.0313 107.393 11.892 108.195 11.892C109.256 11.892 110.247 12.1705 111.168 12.7273C112.096 13.2841 112.845 14.1425 113.415 15.3026C113.986 16.4626 114.271 17.9408 114.271 19.7372C114.271 21.4673 113.996 22.9157 113.445 24.0824C112.902 25.2491 112.166 26.1241 111.238 26.7074C110.317 27.2907 109.292 27.5824 108.165 27.5824C107.397 27.5824 106.73 27.4564 106.167 27.2045C105.603 26.9527 105.129 26.6212 104.745 26.2102C104.367 25.7992 104.076 25.3584 103.87 24.8878H103.721V27.3636H98.9084ZM103.671 19.7273C103.671 20.5492 103.781 21.2652 103.999 21.875C104.225 22.4848 104.546 22.9588 104.964 23.2969C105.388 23.6283 105.895 23.794 106.485 23.794C107.082 23.794 107.589 23.6283 108.006 23.2969C108.424 22.9588 108.739 22.4848 108.951 21.875C109.17 21.2652 109.279 20.5492 109.279 19.7273C109.279 18.9053 109.17 18.1927 108.951 17.5895C108.739 16.9863 108.424 16.5189 108.006 16.1875C107.595 15.8561 107.088 15.6903 106.485 15.6903C105.888 15.6903 105.381 15.8527 104.964 16.1776C104.546 16.5024 104.225 16.9664 103.999 17.5696C103.781 18.1728 103.671 18.892 103.671 19.7273Z" fill="#F6FFFC"/>
<path d="M86.6658 12.0909L89.1815 17.1222L91.7866 12.0909H96.6886L92.4229 19.7273L96.8476 27.3637H91.9854L89.1815 22.2926L86.4471 27.3637H81.5153L85.9499 19.7273L81.734 12.0909H86.6658Z" fill="#F6FFFC"/>
<path d="M73.0163 27.652C71.4188 27.652 70.04 27.3372 68.88 26.7074C67.7265 26.0711 66.8383 25.1662 66.2152 23.9929C65.5987 22.813 65.2905 21.411 65.2905 19.787C65.2905 18.2093 65.602 16.8305 66.2251 15.6506C66.8482 14.4641 67.7265 13.5427 68.8601 12.8864C69.9936 12.2235 71.3293 11.8921 72.8672 11.8921C73.9543 11.8921 74.9486 12.0611 75.8501 12.3992C76.7516 12.7373 77.5305 13.2377 78.1868 13.9006C78.843 14.5635 79.3534 15.3821 79.718 16.3566C80.0826 17.3244 80.2649 18.4347 80.2649 19.6875V20.9006H66.9907V18.0767H75.7408C75.7341 17.5597 75.6115 17.099 75.3729 16.6946C75.1342 16.2903 74.8061 15.9754 74.3885 15.75C73.9775 15.518 73.5035 15.402 72.9666 15.402C72.423 15.402 71.9358 15.5247 71.505 15.7699C71.0741 16.0086 70.7327 16.3367 70.4808 16.7543C70.2289 17.1653 70.0963 17.6326 70.0831 18.1563V21.0299C70.0831 21.653 70.2057 22.1999 70.451 22.6705C70.6962 23.1345 71.0443 23.4958 71.495 23.7543C71.9458 24.0128 72.4827 24.1421 73.1058 24.1421C73.5367 24.1421 73.9278 24.0824 74.2791 23.9631C74.6304 23.8438 74.932 23.6681 75.1839 23.4361C75.4358 23.2041 75.6247 22.9191 75.7507 22.581L80.2152 22.7103C80.0296 23.7112 79.6219 24.5829 78.9922 25.3253C78.3691 26.0611 77.5504 26.6345 76.5362 27.0455C75.522 27.4499 74.3487 27.652 73.0163 27.652Z" fill="#F6FFFC"/>
<path d="M62.7823 7V27.3636H57.9201V7H62.7823Z" fill="#F6FFFC"/>
<path d="M41.5412 27.3636V7H55.4418V10.9972H46.4631V15.1733H54.5568V19.1804H46.4631V27.3636H41.5412Z" fill="#F6FFFC"/>
<circle cx="17" cy="17" r="17" fill="url(#paint0_linear_8_15)"/>
<rect x="12" y="12" width="10" height="10" stroke="#13132B" stroke-width="4"/>
<defs>
<linearGradient id="paint0_linear_8_15" x1="17" y1="0" x2="17" y2="34" gradientUnits="userSpaceOnUse">
<stop stop-color="#02F6A9"/>
<stop offset="1" stop-color="#1A91F5"/>
</linearGradient>
</defs>
</svg>
